P3
# Created by GIMP version 2.10.24 PNM plug-in
48 48
255
24
42
240
24
42
240
24
42
240
24
42
240
24
42
240
24
42
240
24
42
240
24
42
240
24
42
240
24
42
240
24
42
240
24
42
240
24
42
240
24
42
240
24
42
240
24
42
240
24
42
240
24
42
240
24
42
240
24
42
240
24
42
240
24
42
240
24
42
240
24
42
240
24
42
240
24
42
240
24
42
240
24
43
240
24
46
239
24
55
234
24
71
224
23
91
205
22
111
178
22
126
144
21
137
109
21
143
77
21
146
57
21
146
50
21
146
49
21
146
49
21
146
49
21
146
49
21
146
49
21
146
49
21
146
49
21
146
49
21
146
49
21
146
49
24
42
240
24
42
240
24
42
240
24
42
240
24
42
240
24
42
240
24
42
240
24
42
240
24
42
240
24
42
240
24
42
240
24
42
240
24
42
240
24
42
240
24
42
240
24
42
240
24
42
240
24
42
240
24
42
240
24
42
240
24
42
240
24
42
240
24
42
240
24
42
240
24
42
240
24
42
240
24
42
240
24
42
240
24
43
240
24
46
238
24
57
233
23
75
221
23
96
200
22
116
169
22
130
135
21
140
98
21
144
69
21
146
53
21
146
49
21
146
49
21
146
49
21
146
49
21
146
49
21
146
49
21
146
49
21
146
49
21
146
49
21
146
49
24
42
240
24
42
240
24
42
240
24
42
240
24
42
240
24
42
240
24
42
240
24
42
240
24
42
240
24
42
240
24
42
240
24
42
240
24
42
240
24
42
240
24
42
240
24
42
240
24
42
240
24
42
240
24
42
240
24
42
240
24
42
240
24
42
240
24
42
240
24
42
240
24
42
240
24
42
240
24
42
240
24
42
240
24
42
240
24
43
240
24
47
238
24
60
231
23
79
218
23
101
193
22
119
162
21
133
123
21
142
86
21
146
59
21
146
49
21
146
49
21
146
49
21
146
49
21
146
49
21
146
49
21
146
49
21
146
49
21
146
49
21
146
49
24
42
240
24
42
240
24
42
240
24
42
240
24
42
240
24
42
240
24
42
240
24
42
240
24
42
240
24
42
240
24
42
240
24
42
240
24
42
240
24
42
240
24
42
240
24
42
240
24
42
240
24
42
240
24
42
240
24
42
240
24
42
240
24
42
240
24
42
240
24
42
240
24
42
240
24
42
240
24
42
240
24
42
240
24
42
240
24
42
240
24
43
240
24
50
237
24
65
228
23
86
211
23
107
185
22
125
149
21
137
111
21
144
73
21
146
52
21
146
49
21
146
49
21
146
49
21
146
49
21
146
49
21
146
49
21
146
49
21
146
49
21
146
49
24
42
240
24
42
240
24
42
240
24
42
240
24
42
240
24
42
240
24
42
240
24
42
240
24
42
240
24
42
240
24
42
240
24
42
240
24
42
240
24
42
240
24
42
240
24
42
240
24
42
240
24
42
240
24
42
240
24
42
240
24
42
240
24
42
240
24
42
240
24
42
240
24
42
240
24
42
240
24
42
240
24
42
240
24
42
240
24
42
240
24
42
240
24
45
239
24
54
235
24
72
224
23
92
204
22
113
174
22
129
137
21
140
96
21
145
63
21
146
49
21
146
49
21
146
49
21
146
49
21
146
49
21
146
49
21
146
49
21
146
49
21
146
49
24
42
240
24
42
240
24
42
240
24
42
240
24
42
240
24
42
240
24
42
240
24
42
240
24
42
240
24
42
240
24
42
240
24
42
240
24
42
240
24
42
240
24
42
240
24
42
240
24
42
240
24
42
240
24
42
240
24
42
240
24
42
240
24
42
240
24
42
240
24
42
240
24
42
240
24
42
240
24
42
240
24
42
240
24
42
240
24
42
240
24
42
240
24
43
240
24
49
237
24
61
231
23
80
217
23
100
195
22
118
164
21
133
125
21
141
88
21
145
60
21
146
50
21
146
49
21
146
49
21
146
49
21
146
49
21
146
49
21
146
49
21
146
49
24
42
240
24
42
240
24
42
240
24
42
240
24
42
240
24
42
240
24
42
240
24
42
240
24
42
240
24
42
240
24
42
240
24
42
240
24
42
240
24
42
240
24
42
240
24
42
240
24
42
240
24
42
240
24
42
240
24
42
240
24
42
240
24
42
240
24
42
240
24
42
240
24
42
240
24
42
240
24
42
240
24
42
240
24
42
240
24
42
240
24
42
240
24
42
240
24
46
238
24
53
235
24
68
226
23
86
211
23
105
187
22
122
155
21
135
117
21
142
84
21
145
60
21
146
51
21
146
49
21
146
49
21
146
49
21
146
49
21
146
49
21
146
49
24
42
240
24
42
240
24
42
240
24
42
240
24
42
240
24
42
240
24
42
240
24
42
240
24
42
240
24
42
240
24
42
240
24
42
240
24
42
240
24
42
240
24
42
240
24
42
240
24
42
240
24
42
240
24
42
240
24
42
240
24
42
240
24
42
240
24
42
240
24
42
240
24
42
240
24
42
240
24
42
240
24
42
240
24
42
240
24
42
240
24
42
240
24
42
240
24
44
239
24
48
238
24
58
232
23
73
223
23
91
205
22
109
181
22
124
150
21
135
116
21
142
84
21
145
62
21
146
52
21
146
49
21
146
49
21
146
49
21
146
49
21
146
49
24
42
240
24
42
240
24
42
240
24
42
240
24
42
240
24
42
240
24
42
240
24
42
240
24
42
240
24
42
240
24
42
240
24
42
240
24
42
240
24
42
240
24
42
240
24
42
240
24
42
240
24
42
240
24
42
240
24
42
240
24
42
240
24
42
240
24
42
240
24
42
240
24
42
240
24
42
240
24
42
240
24
42
240
24
42
240
24
42
240
24
42
240
24
42
240
24
42
240
24
44
239
24
50
237
24
60
231
23
76
220
23
93
203
22
111
178
22
125
148
21
135
116
21
142
86
21
145
64
21
146
52
21
146
50
21
146
49
21
146
49
21
146
49
24
42
240
24
42
240
24
42
240
24
42
240
24
42
240
24
42
240
24
42
240
24
42
240
24
42
240
24
42
240
24
42
240
24
42
240
24
42
240
24
42
240
24
42
240
24
42
240
24
42
240
24
42
240
24
42
240
24
42
240
24
42
240
24
42
240
24
42
240
24
42
240
24
42
240
24
42
240
24
42
240
24
42
240
24
42
240
24
42
240
24
42
240
24
42
240
24
42
240
24
42
240
24
45
239
24
51
236
24
62
230
23
76
220
23
94
202
22
110
180
22
123
152
21
134
121
21
141
91
21
145
67
21
146
54
21
146
50
21
146
49
21
146
49
24
42
240
24
42
240
24
42
240
24
42
240
24
42
240
24
42
240
24
42
240
24
42
240
24
42
240
24
42
240
24
42
240
24
42
240
24
42
240
24
42
240
24
42
240
24
42
240
24
42
240
24
42
240
24
42
240
24
42
240
24
42
240
24
42
240
24
42
240
24
42
240
24
42
240
24
42
240
24
42
240
24
42
240
24
42
240
24
42
240
24
42
240
24
42
240
24
42
240
24
42
240
24
42
240
24
45
239
24
50
237
24
60
231
23
75
221
23
91
205
22
108
183
22
122
157
21
132
127
21
140
96
21
144
72
21
146
56
21
146
51
21
146
49
24
42
240
24
42
240
24
42
240
24
42
240
24
42
240
24
42
240
24
42
240
24
42
240
24
42
240
24
42
240
24
42
240
24
42
240
24
42
240
24
42
240
24
42
240
24
42
240
24
42
240
24
42
240
24
42
240
24
42
240
24
42
240
24
42
240
24
42
240
24
42
240
24
42
240
24
42
240
24
42
240
24
42
240
24
42
240
24
42
240
24
42
240
24
42
240
24
42
240
24
42
240
24
42
240
24
42
240
24
44
239
24
49
237
24
58
233
24
71
224
23
88
209
23
104
189
22
118
165
22
130
134
21
138
104
21
143
78
21
145
60
21
146
52
24
42
240
24
42
240
24
42
240
24
42
240
24
42
240
24
42
240
24
42
240
24
42
240
24
42
240
24
42
240
24
42
240
24
42
240
24
42
240
24
42
240
24
42
240
24
42
240
24
42
240
24
42
240
24
42
240
24
42
240
24
42
240
24
42
240
24
42
240
24
42
240
24
42
240
24
42
240
24
42
240
24
42
240
24
42
240
24
42
240
24
42
240
24
42
240
24
42
240
24
42
240
24
42
240
24
42
240
24
42
240
24
43
240
24
47
238
24
55
234
24
67
227
23
82
214
23
99
196
22
114
171
22
127
143
21
136
112
21
142
87
21
145
66
24
42
240
24
42
240
24
42
240
24
42
240
24
42
240
24
42
240
24
42
240
24
42
240
24
42
240
24
42
240
24
42
240
24
42
240
24
42
240
24
42
240
24
42
240
24
42
240
24
42
240
24
42
240
24
42
240
24
42
240
24
42
240
24
42
240
24
42
240
24
42
240
24
42
240
24
42
240
24
42
240
24
42
240
24
42
240
24
42
240
24
42
240
24
42
240
24
42
240
24
42
240
24
42
240
24
42
240
24
42
240
24
42
240
24
42
240
24
45
239
24
51
236
24
62
230
23
77
219
23
94
202
22
109
180
22
124
151
21
133
125
21
139
98
24
42
240
24
42
240
24
42
240
24
42
240
24
42
240
24
42
240
24
42
240
24
42
240
24
42
240
24
42
240
24
42
240
24
42
240
24
42
240
24
42
240
24
42
240
24
42
240
24
42
240
24
42
240
24
42
240
24
42
240
24
42
240
24
42
240
24
42
240
24
42
240
24
42
240
24
42
240
24
42
240
24
42
240
24
42
240
24
42
240
24
42
240
24
42
240
24
42
240
24
42
240
24
42
240
24
42
240
24
42
240
24
42
240
24
42
240
24
42
240
24
44
239
24
49
237
24
58
233
24
71
224
23
88
209
23
105
187
22
118
163
22
129
137
24
42
240
24
42
240
24
42
240
24
42
240
24
42
240
24
42
240
24
42
240
24
42
240
24
42
240
24
42
240
24
42
240
24
42
240
24
42
240
24
42
240
24
42
240
24
42
240
24
42
240
24
42
240
24
42
240
24
42
240
24
42
240
24
42
240
24
42
240
24
42
240
24
42
240
24
42
240
24
42
240
24
42
240
24
42
240
24
42
240
24
42
240
24
42
240
24
42
240
24
42
240
24
42
240
24
42
240
24
42
240
24
42
240
24
42
240
24
42
240
24
42
240
24
43
239
24
46
238
24
54
235
24
67
227
23
82
215
23
98
197
22
112
176
24
42
240
24
42
240
24
42
240
24
42
240
24
42
240
24
42
240
24
42
240
24
42
240
24
42
240
24
42
240
24
42
240
24
42
240
24
42
240
24
42
240
24
42
240
24
42
240
24
42
240
24
42
240
24
42
240
24
42
240
24
42
240
24
42
240
24
42
240
24
42
240
24
42
240
24
42
240
24
42
240
24
42
240
24
42
240
24
42
240
24
42
240
24
42
240
24
42
240
24
42
240
24
42
240
24
42
240
24
42
240
24
42
240
24
42
240
24
42
240
24
42
240
24
42
240
24
43
240
24
44
239
24
50
237
24
61
231
23
76
220
23
90
206
24
42
240
24
42
240
24
42
240
24
42
240
24
42
240
24
42
240
24
42
240
24
42
240
24
42
240
24
42
240
24
42
240
24
42
240
24
42
240
24
42
240
24
42
240
24
42
240
24
42
240
24
42
240
24
42
240
24
42
240
24
42
240
24
42
240
24
42
240
24
42
240
24
42
240
24
42
240
24
42
240
24
42
240
24
42
240
24
42
240
24
42
240
24
42
240
24
42
240
24
42
240
24
42
240
24
42
240
24
42
240
24
42
240
24
42
240
24
42
240
24
42
240
24
42
240
24
42
240
24
42
240
24
43
239
24
47
238
24
57
233
24
67
227
24
42
240
24
42
240
24
42
240
24
42
240
24
42
240
24
42
240
24
42
240
24
42
240
24
42
240
24
42
240
24
42
240
24
42
240
24
42
240
24
42
240
24
42
240
24
42
240
24
42
240
24
42
240
24
42
240
24
42
240
24
42
240
24
42
240
24
42
240
24
42
240
24
42
240
24
42
240
24
42
240
24
42
240
24
42
240
24
42
240
24
42
240
24
42
240
24
42
240
24
42
240
24
42
240
24
42
240
24
42
240
24
42
240
24
42
240
24
42
240
24
42
240
24
42
240
24
42
240
24
42
240
24
42
240
24
42
240
24
45
239
24
52
236
24
42
240
24
42
240
24
42
240
24
42
240
24
42
240
24
42
240
24
42
240
24
42
240
24
42
240
24
42
240
24
42
240
24
42
240
24
42
240
24
42
240
24
42
240
24
42
240
24
42
240
24
42
240
24
42
240
24
42
240
24
42
240
24
42
240
24
42
240
24
42
240
24
42
240
24
42
240
24
42
240
24
42
240
24
42
240
24
42
240
24
42
240
24
42
240
24
42
240
24
42
240
24
42
240
24
42
240
24
42
240
24
42
240
24
42
240
24
42
240
24
42
240
24
42
240
24
42
240
24
42
240
24
42
240
24
42
240
24
42
240
24
44
239
24
42
240
24
42
240
24
42
240
24
42
240
24
42
240
24
42
240
24
42
240
24
42
240
24
42
240
24
42
240
24
42
240
24
42
240
24
42
240
24
42
240
24
42
240
24
42
240
24
42
240
24
42
240
24
42
240
24
42
240
24
42
240
24
42
240
24
42
240
24
42
240
24
42
240
24
42
240
24
42
240
24
42
240
24
42
240
24
42
240
24
42
240
24
42
240
24
42
240
24
42
240
24
42
240
24
42
240
24
42
240
24
42
240
24
42
240
24
42
240
24
42
240
24
42
240
24
42
240
24
42
240
24
42
240
24
42
240
24
42
240
24
42
240
24
42
240
24
42
240
24
42
240
24
42
240
24
42
240
24
42
240
24
42
240
24
42
240
24
42
240
24
42
240
24
42
240
24
42
240
24
42
240
24
42
240
24
42
240
24
42
240
24
42
240
24
42
240
24
42
240
24
42
240
24
42
240
24
42
240
24
42
240
24
42
240
24
42
240
24
42
240
24
42
240
24
42
240
24
42
240
24
42
240
24
42
240
24
42
240
24
42
240
24
42
240
24
42
240
24
42
240
24
42
240
24
42
240
24
42
240
24
42
240
24
42
240
24
42
240
24
42
240
24
42
240
24
42
240
24
42
240
24
42
240
24
42
240
24
42
240
24
42
240
24
42
240
24
42
240
24
42
240
24
42
240
24
42
240
24
42
240
24
42
240
24
42
240
24
42
240
24
42
240
24
42
240
24
42
240
24
42
240
24
42
240
24
42
240
24
42
240
24
42
240
24
42
240
24
42
240
24
42
240
24
42
240
24
42
240
24
42
240
24
42
240
24
42
240
24
42
240
24
42
240
24
42
240
24
42
240
24
42
240
24
42
240
24
42
240
24
42
240
24
42
240
24
42
240
24
42
240
24
42
240
24
42
240
24
42
240
24
42
240
24
42
240
24
42
240
24
42
240
24
42
240
24
42
240
24
42
240
24
42
240
24
42
240
24
42
240
24
42
240
24
42
240
24
42
240
24
42
240
24
42
240
24
42
240
24
42
240
24
42
240
24
42
240
24
42
240
24
42
240
24
42
240
24
42
240
24
42
240
24
42
240
24
42
240
24
42
240
24
42
240
24
42
240
24
42
240
24
42
240
24
42
240
24
42
240
24
42
240
24
42
240
24
42
240
24
42
240
24
42
240
24
42
240
24
42
240
24
42
240
24
42
240
24
42
240
24
42
240
24
42
240
24
42
240
24
42
240
24
42
240
24
42
240
24
42
240
24
42
240
24
42
240
24
42
240
24
42
240
24
42
240
24
42
240
24
42
240
24
42
240
24
42
240
24
42
240
24
42
240
24
42
240
24
42
240
24
42
240
24
42
240
24
42
240
24
42
240
24
42
240
24
42
240
24
42
240
24
42
240
24
42
240
24
42
240
24
42
240
24
42
240
24
42
240
24
42
240
24
42
240
24
42
240
24
42
240
24
42
240
24
42
240
24
42
240
24
42
240
24
42
240
24
42
240
24
42
240
24
42
240
24
42
240
24
42
240
24
42
240
24
42
240
24
42
240
24
42
240
24
42
240
24
42
240
24
42
240
24
42
240
24
42
240
24
42
240
24
42
240
24
42
240
24
42
240
24
42
240
24
42
240
24
42
240
24
42
240
24
42
240
24
42
240
24
42
240
24
42
240
24
42
240
24
42
240
24
42
240
24
42
240
24
42
240
24
42
240
24
42
240
24
42
240
24
42
240
24
42
240
24
42
240
24
42
240
24
42
240
24
42
240
24
42
240
24
42
240
24
42
240
24
42
240
24
42
240
24
42
240
24
42
240
24
42
240
24
42
240
24
42
240
24
42
240
24
42
240
24
42
240
24
42
240
24
42
240
24
42
240
24
42
240
24
42
240
24
42
240
24
42
240
24
42
240
24
42
240
24
42
240
24
42
240
24
42
240
24
42
240
24
42
240
24
42
240
24
42
240
24
42
240
24
42
240
24
42
240
24
42
240
24
42
240
24
42
240
24
42
240
24
42
240
24
42
240
24
42
240
24
42
240
24
42
240
24
42
240
24
42
240
24
42
240
24
42
240
24
42
240
24
42
240
24
42
240
24
42
240
24
42
240
24
42
240
24
42
240
24
42
240
24
42
240
24
42
240
24
42
240
24
42
240
24
42
240
24
42
240
24
42
240
24
42
240
24
42
240
24
42
240
24
42
240
24
42
240
24
42
240
24
42
240
24
42
240
24
42
240
24
42
240
24
42
240
24
42
240
24
42
240
24
42
240
24
42
240
24
42
240
24
42
240
24
42
240
24
42
240
24
42
240
24
42
240
24
42
240
24
42
240
24
42
240
24
42
240
24
42
240
24
42
240
24
42
240
24
42
240
24
42
240
24
42
240
24
42
240
24
42
240
24
42
240
24
42
240
24
42
240
24
42
240
24
42
240
24
42
240
24
42
240
24
42
240
24
42
240
24
42
240
24
42
240
24
42
240
24
42
240
24
42
240
24
42
240
24
42
240
24
42
240
24
42
240
24
42
240
24
42
240
24
42
240
24
42
240
24
42
240
24
42
240
24
42
240
24
42
240
24
42
240
24
42
240
24
42
240
24
42
240
24
42
240
24
42
240
24
42
240
24
42
240
24
42
240
24
42
240
24
42
240
24
42
240
24
42
240
24
42
240
24
42
240
24
42
240
24
42
240
24
42
240
24
42
240
24
42
240
24
42
240
24
42
240
24
42
240
24
42
240
24
42
240
24
42
240
24
42
240
24
42
240
24
42
240
24
42
240
24
42
240
24
42
240
24
42
240
24
42
240
24
42
240
24
42
240
24
42
240
24
42
240
24
42
240
24
42
240
24
42
240
24
42
240
24
42
240
24
42
240
24
42
240
24
42
240
24
42
240
24
42
240
24
42
240
24
42
240
24
42
240
24
42
240
24
42
240
24
42
240
24
42
240
24
42
240
24
42
240
24
42
240
24
42
240
24
42
240
24
42
240
24
42
240
24
42
240
24
42
240
24
42
240
24
42
240
24
42
240
24
42
240
24
42
240
24
42
240
24
42
240
24
42
240
24
42
240
24
42
240
24
42
240
24
42
240
24
42
240
24
42
240
24
42
240
24
42
240
24
42
240
24
42
240
24
42
240
24
42
240
24
42
240
24
42
240
24
42
240
24
42
240
24
42
240
24
42
240
24
42
240
24
42
240
24
42
240
24
42
240
24
42
240
24
42
240
24
42
240
24
42
240
24
42
240
24
42
240
24
42
240
24
42
240
24
42
240
24
42
240
24
42
240
24
42
240
24
42
240
24
42
240
24
42
240
24
42
240
24
42
240
24
42
240
24
42
240
24
42
240
24
42
240
24
42
240
24
42
240
24
42
240
24
42
240
24
42
240
24
42
240
24
42
240
24
42
240
24
42
240
24
42
240
24
42
240
24
42
240
24
42
240
24
42
240
24
42
240
24
42
240
24
42
240
24
42
240
24
42
240
24
42
240
24
42
240
24
42
240
24
42
240
24
42
240
24
42
240
24
42
240
24
42
240
24
42
240
24
42
240
24
42
240
24
42
240
24
42
240
24
42
240
24
42
240
24
42
240
24
42
240
24
42
240
24
42
240
24
42
240
24
42
240
24
42
240
24
42
240
24
42
240
24
42
240
24
42
240
24
42
240
24
42
240
24
42
240
24
42
240
24
42
240
24
42
240
24
42
240
24
42
240
24
42
240
24
42
240
24
42
240
24
42
240
24
42
240
24
42
240
24
42
240
24
42
240
24
42
240
24
42
240
24
42
240
24
42
240
24
42
240
24
42
240
24
42
240
24
42
240
24
42
240
24
42
240
24
42
240
24
42
240
24
42
240
24
42
240
24
42
240
24
42
240
24
42
240
24
42
240
24
42
240
24
42
240
24
42
240
24
42
240
24
42
240
24
42
240
24
42
240
24
42
240
24
42
240
24
42
240
24
42
240
24
42
240
24
42
240
24
42
240
24
42
240
24
42
240
24
42
240
24
42
240
24
42
240
24
42
240
24
42
240
24
42
240
24
42
240
24
42
240
24
42
240
24
42
240
24
42
240
24
42
240
24
42
240
24
42
240
24
42
240
24
42
240
24
42
240
24
42
240
24
42
240
24
42
240
24
42
240
24
42
240
24
42
240
24
42
240
24
42
240
24
42
240
24
42
240
24
42
240
24
42
240
24
42
240
24
42
240
24
42
240
24
42
240
24
42
240
24
42
240
24
42
240
24
42
240
24
42
240
24
42
240
24
42
240
24
42
240
24
42
240
24
42
240
24
42
240
24
42
240
24
42
240
24
42
240
24
42
240
24
42
240
24
42
240
24
42
240
24
42
240
24
42
240
24
42
240
24
42
240
24
42
240
24
42
240
24
42
240
24
42
240
24
42
240
24
42
240
24
42
240
24
42
240
24
42
240
24
42
240
24
42
240
24
42
240
24
42
240
24
42
240
24
42
240
24
42
240
24
42
240
24
42
240
24
42
240
24
42
240
24
42
240
24
42
240
24
42
240
24
42
240
24
42
240
24
42
240
24
42
240
24
42
240
24
42
240
24
42
240
24
42
240
24
42
240
24
42
240
24
42
240
24
42
240
24
42
240
24
42
240
24
42
240
24
42
240
24
42
240
24
42
240
24
42
240
24
42
240
24
42
240
24
42
240
24
42
240
24
42
240
24
42
240
24
42
240
24
42
240
24
42
240
24
42
240
24
42
240
24
42
240
24
42
240
24
42
240
24
42
240
24
42
240
24
42
240
24
42
240
24
42
240
24
42
240
24
42
240
24
42
240
24
42
240
24
42
240
24
42
240
24
42
240
24
42
240
24
42
240
24
42
240
24
42
240
24
42
240
24
42
240
24
42
240
24
42
240
24
42
240
24
42
240
24
42
240
24
42
240
24
42
240
24
42
240
24
42
240
24
42
240
24
42
240
24
42
240
24
42
240
24
42
240
24
42
240
24
42
240
24
42
240
24
42
240
24
42
240
24
42
240
24
42
240
24
42
240
24
42
240
24
42
240
24
42
240
24
42
240
24
42
240
24
42
240
24
42
240
24
42
240
24
42
240
24
42
240
24
42
240
24
42
240
24
42
240
24
42
240
24
42
240
24
42
240
24
42
240
24
42
240
24
42
240
24
42
240
24
42
240
24
42
240
24
42
240
24
42
240
24
42
240
24
42
240
24
42
240
24
42
240
24
42
240
24
42
240
24
42
240
24
42
240
24
42
240
24
42
240
24
42
240
24
42
240
24
42
240
24
42
240
24
42
240
24
42
240
24
42
240
24
42
240
24
42
240
24
42
240
24
42
240
24
42
240
24
42
240
24
42
240
24
42
240
24
42
240
24
42
240
24
42
240
24
42
240
24
42
240
24
42
240
24
42
240
24
42
240
24
42
240
24
42
240
24
42
240
24
42
240
24
42
240
24
42
240
24
42
240
24
42
240
24
42
240
24
42
240
24
42
240
24
42
240
24
42
240
24
42
240
24
42
240
24
42
240
24
42
240
24
42
240
24
42
240
24
42
240
24
42
240
24
42
240
24
42
240
24
42
240
24
42
240
24
42
240
24
42
240
24
42
240
24
42
240
24
42
240
24
42
240
24
42
240
24
42
240
24
42
240
24
42
240
24
42
240
24
42
240
24
42
240
24
42
240
24
42
240
24
42
240
24
42
240
24
42
240
24
42
240
24
42
240
24
42
240
24
42
240
24
42
240
24
42
240
24
42
240
24
42
240
24
42
240
24
42
240
24
42
240
24
42
240
24
42
240
24
42
240
24
42
240
24
42
240
24
42
240
24
42
240
24
42
240
24
42
240
24
42
240
24
42
240
24
42
240
24
42
240
24
42
240
24
42
240
24
42
240
24
42
240
24
42
240
24
42
240
24
42
240
24
42
240
24
42
240
24
42
240
24
42
240
24
42
240
24
42
240
24
42
240
24
42
240
24
42
240
24
42
240
24
42
240
24
42
240
24
42
240
24
42
240
24
42
240
24
42
240
24
42
240
24
42
240
24
42
240
24
42
240
24
42
240
24
42
240
24
42
240
24
42
240
24
42
240
24
42
240
24
42
240
24
42
240
24
42
240
24
42
240
24
42
240
24
42
240
24
42
240
24
42
240
24
42
240
24
42
240
24
42
240
24
42
240
24
42
240
24
42
240
24
42
240
24
42
240
24
42
240
24
42
240
24
42
240
24
42
240
24
42
240
24
42
240
24
42
240
24
42
240
24
42
240
24
42
240
24
42
240
24
42
240
24
42
240
24
42
240
24
42
240
24
42
240
24
42
240
24
42
240
24
42
240
24
42
240
24
42
240
24
42
240
24
42
240
24
42
240
24
42
240
24
42
240
24
42
240
24
42
240
24
42
240
24
42
240
24
42
240
24
42
240
24
42
240
24
42
240
24
42
240
24
42
240
24
42
240
24
42
240
24
42
240
24
42
240
24
42
240
24
42
240
24
42
240
24
42
240
24
42
240
24
42
240
24
42
240
24
42
240
24
42
240
24
42
240
24
42
240
24
42
240
24
42
240
24
42
240
24
42
240
24
42
240
24
42
240
24
42
240
24
42
240
24
42
240
24
42
240
24
42
240
24
42
240
24
42
240
24
42
240
24
42
240
24
42
240
24
42
240
24
42
240
24
42
240
24
42
240
24
42
240
24
42
240
24
42
240
24
42
240
24
42
240
24
42
240
24
42
240
24
42
240
24
42
240
24
42
240
24
42
240
24
42
240
24
42
240
24
42
240
24
42
240
24
42
240
24
42
240
24
42
240
24
42
240
24
42
240
24
42
240
24
42
240
24
42
240
24
42
240
24
42
240
24
42
240
24
42
240
24
42
240
24
42
240
24
42
240
24
42
240
24
42
240
24
42
240
24
42
240
24
42
240
24
42
240
24
42
240
24
42
240
24
42
240
24
42
240
24
42
240
24
42
240
24
42
240
24
42
240
24
42
240
24
42
240
24
42
240
24
42
240
24
42
240
24
42
240
24
42
240
24
42
240
24
42
240
24
42
240
24
42
240
24
42
240
24
42
240
24
42
240
24
42
240
24
42
240
24
42
240
24
42
240
24
42
240
24
42
240
24
42
240
24
42
240
24
42
240
24
42
240
24
42
240
24
42
240
24
42
240
24
42
240
24
42
240
24
42
240
24
42
240
24
42
240
24
42
240
24
42
240
24
42
240
24
42
240
24
42
240
24
42
240
24
42
240
24
42
240
24
42
240
24
42
240
24
42
240
24
42
240
24
42
240
24
42
240
24
42
240
24
42
240
24
42
240
24
42
240
24
42
240
24
42
240
24
42
240
24
42
240
24
42
240
24
42
240
24
42
240
24
42
240
24
42
240
24
42
240
24
42
240
24
42
240
24
42
240
24
42
240
24
42
240
24
42
240
24
42
240
24
42
240
24
42
240
24
42
240
24
42
240
24
42
240
24
42
240
24
42
240
24
42
240
24
42
240
24
42
240
24
42
240
24
42
240
24
42
240
24
42
240
24
42
240
24
42
240
24
42
240
24
42
240
24
42
240
24
42
240
24
42
240
24
42
240
24
42
240
24
42
240
24
42
240
24
42
240
24
42
240
24
42
240
24
42
240
24
42
240
24
42
240
24
42
240
24
42
240
24
42
240
24
42
240
24
42
240
24
42
240
24
42
240
24
42
240
24
42
240
24
42
240
24
42
240
24
42
240
24
42
240
24
42
240
24
42
240
24
42
240
24
42
240
24
42
240
24
42
240
24
42
240
24
42
240
24
42
240
24
42
240
24
42
240
24
42
240
24
42
240
24
42
240
24
42
240
24
42
240
24
42
240
24
42
240
24
42
240
24
42
240
24
42
240
24
42
240
24
42
240
24
42
240
24
42
240
24
42
240
24
42
240
24
42
240
24
42
240
24
42
240
24
42
240
24
42
240
24
42
240
24
42
240
24
42
240
24
42
240
24
42
240
24
42
240
24
42
240
24
42
240
24
42
240
24
42
240
24
42
240
24
42
240
24
42
240
24
42
240
24
42
240
24
42
240
24
42
240
24
42
240
24
42
240
24
42
240
24
42
240
24
42
240
24
42
240
24
42
240
24
42
240
24
42
240
24
42
240
24
42
240
24
42
240
24
42
240
24
42
240
24
42
240
24
42
240
24
42
240
24
42
240
24
42
240
24
42
240
24
42
240
24
42
240
24
42
240
24
42
240
24
42
240
24
42
240
24
42
240
24
42
240
24
42
240
24
42
240
24
42
240
24
42
240
24
42
240
24
42
240
24
42
240
24
42
240
24
42
240
24
42
240
24
42
240
24
42
240
24
42
240
24
42
240
24
42
240
24
42
240
24
42
240
24
42
240
24
42
240
24
42
240
24
42
240
24
42
240
24
42
240
24
42
240
24
42
240
24
42
240
24
42
240
24
42
240
24
42
240
24
42
240
24
42
240
24
42
240
24
42
240
24
42
240
24
42
240
24
42
240
24
42
240
24
42
240
24
42
240
24
42
240
24
42
240
24
42
240
24
42
240
24
42
240
24
42
240
24
42
240
24
42
240
24
42
240
24
42
240
24
42
240
24
42
240
24
42
240
24
42
240
24
42
240
24
42
240
24
42
240
24
42
240
24
42
240
24
42
240
24
42
240
24
42
240
24
42
240
24
42
240
24
42
240
24
42
240
24
42
240
24
42
240
24
42
240
24
42
240
24
42
240
24
42
240
24
42
240
24
42
240
24
42
240
24
42
240
24
42
240
24
42
240
24
42
240
24
42
240
24
42
240
24
42
240
24
42
240
24
42
240
24
42
240
24
42
240
24
42
240
24
42
240
24
42
240
24
42
240
24
42
240
24
42
240
24
42
240
24
42
240
24
42
240
24
42
240
24
42
240
24
42
240
24
42
240
24
42
240
24
42
240
24
42
240
24
42
240
24
42
240
24
42
240
24
42
240
24
42
240
24
42
240
24
42
240
24
42
240
24
42
240
24
42
240
24
42
240
24
42
240
24
42
240
24
42
240
24
42
240
24
42
240
24
42
240
24
42
240
24
42
240
24
42
240
24
42
240
24
42
240
24
42
240
24
42
240
24
42
240
